<svg width="34" height="20" viewBox="0 0 34 20" fill="none" xmlns="http://www.w3.org/2000/svg">
<path d="M33.45 17.1751C33.3585 17.0251 32.7975 15.8056 30.0975 13.2991C27.27 10.6741 27.6495 11.1001 31.0545 6.56407C33.129 3.79957 33.957 2.11207 33.6975 1.38907C33.4515 0.702073 31.9275 0.883573 31.9275 0.883573L26.8545 0.913573C26.8545 0.913573 26.4795 0.862573 26.199 1.02907C25.926 1.19407 25.752 1.57357 25.752 1.57357C25.752 1.57357 24.948 3.71257 23.877 5.53207C21.6165 9.36907 20.712 9.57157 20.343 9.33307C19.4835 8.77807 19.698 7.10107 19.698 5.91157C19.698 2.19157 20.262 0.642073 18.6 0.241573C18.048 0.106573 17.643 0.0195726 16.23 0.00457262C14.421 -0.0149274 12.888 0.0105729 12.021 0.435073C11.442 0.717073 10.998 1.34857 11.271 1.38457C11.6055 1.42957 12.3645 1.58857 12.768 2.13757C13.2885 2.84257 13.269 4.43407 13.269 4.43407C13.269 4.43407 13.569 8.81107 12.5715 9.35557C11.886 9.73057 10.947 8.96857 8.93255 5.48557C8.24996 4.27303 7.64476 3.01852 7.12055 1.72957C7.12055 1.72957 6.97055 1.36357 6.70205 1.16707C6.37805 0.927073 5.92205 0.852073 5.92205 0.852073L1.09955 0.882073C1.09955 0.882073 0.376546 0.903073 0.109546 1.21807C-0.125954 1.49857 0.0915462 2.07607 0.0915462 2.07607C0.0915462 2.07607 3.86705 10.9081 8.14055 15.3616C12.063 19.4431 16.5135 19.1761 16.5135 19.1761H18.531C18.531 19.1761 19.14 19.1086 19.4505 18.7726C19.737 18.4651 19.7265 17.8876 19.7265 17.8876C19.7265 17.8876 19.686 15.1801 20.9445 14.7826C22.182 14.3896 23.7735 17.3971 25.4595 18.5551C26.733 19.4311 27.7005 19.2391 27.7005 19.2391L32.2095 19.1761C32.2095 19.1761 34.5675 19.0306 33.4485 17.1766L33.45 17.1751Z" fill="white"/>
</svg>
